<svg width="318" height="318" viewBox="0 0 318 318" fill="none" xmlns="http://www.w3.org/2000/svg">
<path d="M96.5 152.75H221.5L259 170.25H59L96.5 152.75Z" fill="#1D2B53"/>
<path d="M96.5 149H221.5L259 100.25H59L96.5 149Z" fill="#1D2B53"/>
<circle cx="159" cy="152.75" r="50" fill="#FFF500"/>
<circle cx="159" cy="152.75" r="22.5" fill="white"/>
<mask id="path-6-inside-1_81_133" fill="white">
<path fill-rule="evenodd" clip-rule="evenodd" d="M239 170.25H259V190.25V216.5V239C259 250.046 250.046 259 239 259H79C67.9543 259 59 250.046 59 239V216.5V190.25V170.25H79H239Z"/>
</mask>
<path fill-rule="evenodd" clip-rule="evenodd" d="M239 170.25H259V190.25V216.5V239C259 250.046 250.046 259 239 259H79C67.9543 259 59 250.046 59 239V216.5V190.25V170.25H79H239Z" fill="url(#paint0_linear_81_133)"/>
<path d="M259 170.25H269C269 164.727 264.523 160.25 259 160.25V170.25ZM59 170.25V160.25C53.4772 160.25 49 164.727 49 170.25H59ZM239 180.25H259V160.25H239V180.25ZM249 170.25V190.25H269V170.25H249ZM249 190.25V216.5H269V190.25H249ZM249 216.5V239H269V216.5H249ZM249 239C249 244.523 244.523 249 239 249V269C255.569 269 269 255.569 269 239H249ZM239 249H79V269H239V249ZM79 249C73.4772 249 69 244.523 69 239H49C49 255.569 62.4315 269 79 269V249ZM69 239V216.5H49V239H69ZM69 216.5V190.25H49V216.5H69ZM69 190.25V170.25H49V190.25H69ZM59 180.25H79V160.25H59V180.25ZM79 180.25H239V160.25H79V180.25Z" fill="white" mask="url(#path-6-inside-1_81_133)"/>
<mask id="path-8-inside-2_81_133" fill="white">
<path fill-rule="evenodd" clip-rule="evenodd" d="M75 59C66.1634 59 59 66.1634 59 75V79V84.25V100.25H75H243H259V84.25V79V75C259 66.1634 251.837 59 243 59H75Z"/>
</mask>
<path fill-rule="evenodd" clip-rule="evenodd" d="M75 59C66.1634 59 59 66.1634 59 75V79V84.25V100.25H75H243H259V84.25V79V75C259 66.1634 251.837 59 243 59H75Z" fill="url(#paint1_linear_81_133)"/>
<path d="M59 100.25H49C49 105.773 53.4772 110.25 59 110.25V100.25ZM259 100.25V110.25C264.523 110.25 269 105.773 269 100.25H259ZM69 75C69 71.6863 71.6863 69 75 69V49C60.6406 49 49 60.6406 49 75H69ZM69 79V75H49V79H69ZM69 84.25V79H49V84.25H69ZM69 100.25V84.25H49V100.25H69ZM75 90.25H59V110.25H75V90.25ZM243 90.25H75V110.25H243V90.25ZM259 90.25H243V110.25H259V90.25ZM249 84.25V100.25H269V84.25H249ZM249 79V84.25H269V79H249ZM249 75V79H269V75H249ZM243 69C246.314 69 249 71.6863 249 75H269C269 60.6406 257.359 49 243 49V69ZM75 69H243V49H75V69Z" fill="white" mask="url(#path-8-inside-2_81_133)"/>
<rect x="145.25" y="80.25" width="27.5" height="40" rx="5" fill="url(#paint2_linear_81_133)" stroke="white" stroke-width="10"/>
<rect x="134" y="175.25" width="50" height="30" rx="5" fill="url(#paint3_linear_81_133)" stroke="white" stroke-width="10"/>
<defs>
<linearGradient id="paint0_linear_81_133" x1="59" y1="170" x2="259" y2="259" gradientUnits="userSpaceOnUse">
<stop offset="0.475" stop-color="#FF004D"/>
<stop offset="0.4751" stop-color="#7E2553"/>
</linearGradient>
<linearGradient id="paint1_linear_81_133" x1="159" y1="59" x2="259" y2="100" gradientUnits="userSpaceOnUse">
<stop offset="0.185" stop-color="#0066FF"/>
<stop offset="0.475" stop-color="#0066FF"/>
<stop offset="0.4751" stop-color="#003078"/>
</linearGradient>
<linearGradient id="paint2_linear_81_133" x1="159" y1="75.25" x2="159" y2="125.25" gradientUnits="userSpaceOnUse">
<stop offset="0.5199" stop-color="white"/>
<stop offset="0.52" stop-color="#E6EB00"/>
</linearGradient>
<linearGradient id="paint3_linear_81_133" x1="159" y1="170.25" x2="159" y2="210.25" gradientUnits="userSpaceOnUse">
<stop offset="0.5199" stop-color="white"/>
<stop offset="0.52" stop-color="#E6EB00"/>
</linearGradient>
</defs>
</svg>
